<?xml version="1.0" encoding="UTF-8" standalone="no"?>
<!DOCTYPE svg PUBLIC "-//W3C//DTD SVG 1.1//EN"
 "http://www.w3.org/Graphics/SVG/1.1/DTD/svg11.dtd">
<!-- Generated by graphviz version 2.38.0 (20140413.2041)
 -->
<!-- Title: snakemake_dag Pages: 1 -->
<svg width="709pt" height="692pt"
 viewBox="0.00 0.00 708.65 692.00" xmlns="http://www.w3.org/2000/svg" xmlns:xlink="http://www.w3.org/1999/xlink">
<g id="graph0" class="graph" transform="scale(1 1) rotate(0) translate(4 688)">
<title>snakemake_dag</title>
<polygon fill="white" stroke="none" points="-4,4 -4,-688 704.655,-688 704.655,4 -4,4"/>
<!-- 0 -->
<g id="node1" class="node"><title>0</title>
<path fill="none" stroke="#56b1d8" stroke-width="2" d="M102.855,-396C102.855,-396 32.8491,-396 32.8491,-396 26.8491,-396 20.8491,-390 20.8491,-384 20.8491,-384 20.8491,-372 20.8491,-372 20.8491,-366 26.8491,-360 32.8491,-360 32.8491,-360 102.855,-360 102.855,-360 108.855,-360 114.855,-366 114.855,-372 114.855,-372 114.855,-384 114.855,-384 114.855,-390 108.855,-396 102.855,-396"/>
<text text-anchor="middle" x="67.8521" y="-375" font-family="sans" font-size="10.00">mergeTransGene</text>
</g>
<!-- 1 -->
<g id="node2" class="node"><title>1</title>
<path fill="none" stroke="#ced856" stroke-width="2" d="M382.057,-324C382.057,-324 313.647,-324 313.647,-324 307.647,-324 301.647,-318 301.647,-312 301.647,-312 301.647,-300 301.647,-300 301.647,-294 307.647,-288 313.647,-288 313.647,-288 382.057,-288 382.057,-288 388.057,-288 394.057,-294 394.057,-300 394.057,-300 394.057,-312 394.057,-312 394.057,-318 388.057,-324 382.057,-324"/>
<text text-anchor="middle" x="347.852" y="-303" font-family="sans" font-size="10.00">combineSamples</text>
</g>
<!-- 0&#45;&gt;1 -->
<g id="edge5" class="edge"><title>0&#45;&gt;1</title>
<path fill="none" stroke="grey" stroke-width="2" d="M115.149,-362.416C118.088,-361.579 121.007,-360.768 123.852,-360 180.527,-344.709 245.912,-329.516 291.352,-319.343"/>
<polygon fill="grey" stroke="grey" stroke-width="2" points="292.308,-322.716 301.307,-317.123 290.785,-315.884 292.308,-322.716"/>
</g>
<!-- 6 -->
<g id="node7" class="node"><title>6</title>
<path fill="none" stroke="#70d856" stroke-width="2" d="M371.381,-252C371.381,-252 324.323,-252 324.323,-252 318.323,-252 312.323,-246 312.323,-240 312.323,-240 312.323,-228 312.323,-228 312.323,-222 318.323,-216 324.323,-216 324.323,-216 371.381,-216 371.381,-216 377.381,-216 383.381,-222 383.381,-228 383.381,-228 383.381,-240 383.381,-240 383.381,-246 377.381,-252 371.381,-252"/>
<text text-anchor="middle" x="347.852" y="-231" font-family="sans" font-size="10.00">prepareDEA</text>
</g>
<!-- 1&#45;&gt;6 -->
<g id="edge11" class="edge"><title>1&#45;&gt;6</title>
<path fill="none" stroke="grey" stroke-width="2" d="M347.852,-287.697C347.852,-279.983 347.852,-270.712 347.852,-262.112"/>
<polygon fill="grey" stroke="grey" stroke-width="2" points="351.352,-262.104 347.852,-252.104 344.352,-262.104 351.352,-262.104"/>
</g>
<!-- 2 -->
<g id="node3" class="node"><title>2</title>
<path fill="none" stroke="#d88556" stroke-width="2" d="M439.708,-684C439.708,-684 403.996,-684 403.996,-684 397.996,-684 391.996,-678 391.996,-672 391.996,-672 391.996,-660 391.996,-660 391.996,-654 397.996,-648 403.996,-648 403.996,-648 439.708,-648 439.708,-648 445.708,-648 451.708,-654 451.708,-660 451.708,-660 451.708,-672 451.708,-672 451.708,-678 445.708,-684 439.708,-684"/>
<text text-anchor="middle" x="421.852" y="-668" font-family="sans" font-size="10.00">getReads</text>
<text text-anchor="middle" x="421.852" y="-658" font-family="sans" font-size="10.00">sample: 3</text>
</g>
<!-- 19 -->
<g id="node20" class="node"><title>19</title>
<path fill="none" stroke="#5682d8" stroke-width="2" d="M421.713,-612C421.713,-612 385.992,-612 385.992,-612 379.992,-612 373.992,-606 373.992,-600 373.992,-600 373.992,-588 373.992,-588 373.992,-582 379.992,-576 385.992,-576 385.992,-576 421.713,-576 421.713,-576 427.713,-576 433.713,-582 433.713,-588 433.713,-588 433.713,-600 433.713,-600 433.713,-606 427.713,-612 421.713,-612"/>
<text text-anchor="middle" x="403.852" y="-591" font-family="sans" font-size="10.00">alignment</text>
</g>
<!-- 2&#45;&gt;19 -->
<g id="edge25" class="edge"><title>2&#45;&gt;19</title>
<path fill="none" stroke="grey" stroke-width="2" d="M417.403,-647.697C415.397,-639.898 412.983,-630.509 410.751,-621.829"/>
<polygon fill="grey" stroke="grey" stroke-width="2" points="414.131,-620.918 408.25,-612.104 407.351,-622.661 414.131,-620.918"/>
</g>
<!-- 3 -->
<g id="node4" class="node"><title>3</title>
<path fill="none" stroke="#56d8c9" stroke-width="2" d="M569.307,-180C569.307,-180 488.397,-180 488.397,-180 482.397,-180 476.397,-174 476.397,-168 476.397,-168 476.397,-156 476.397,-156 476.397,-150 482.397,-144 488.397,-144 488.397,-144 569.307,-144 569.307,-144 575.307,-144 581.307,-150 581.307,-156 581.307,-156 581.307,-168 581.307,-168 581.307,-174 575.307,-180 569.307,-180"/>
<text text-anchor="middle" x="528.852" y="-164" font-family="sans" font-size="10.00">DEA</text>
<text text-anchor="middle" x="528.852" y="-154" font-family="sans" font-size="10.00">condition: BaP_high</text>
</g>
<!-- 27 -->
<g id="node28" class="node"><title>27</title>
<path fill="none" stroke="#56d86b" stroke-width="2" d="M532.532,-108C532.532,-108 489.172,-108 489.172,-108 483.172,-108 477.172,-102 477.172,-96 477.172,-96 477.172,-84 477.172,-84 477.172,-78 483.172,-72 489.172,-72 489.172,-72 532.532,-72 532.532,-72 538.532,-72 544.532,-78 544.532,-84 544.532,-84 544.532,-96 544.532,-96 544.532,-102 538.532,-108 532.532,-108"/>
<text text-anchor="middle" x="510.852" y="-87" font-family="sans" font-size="10.00">extractDEG</text>
</g>
<!-- 3&#45;&gt;27 -->
<g id="edge34" class="edge"><title>3&#45;&gt;27</title>
<path fill="none" stroke="grey" stroke-width="2" d="M524.403,-143.697C522.397,-135.898 519.983,-126.509 517.751,-117.829"/>
<polygon fill="grey" stroke="grey" stroke-width="2" points="521.131,-116.918 515.25,-108.104 514.351,-118.661 521.131,-116.918"/>
</g>
<!-- 4 -->
<g id="node5" class="node"><title>4</title>
<path fill="none" stroke="#d8b456" stroke-width="2" d="M428.67,-468C428.67,-468 379.034,-468 379.034,-468 373.034,-468 367.034,-462 367.034,-456 367.034,-456 367.034,-444 367.034,-444 367.034,-438 373.034,-432 379.034,-432 379.034,-432 428.67,-432 428.67,-432 434.67,-432 440.67,-438 440.67,-444 440.67,-444 440.67,-456 440.67,-456 440.67,-462 434.67,-468 428.67,-468"/>
<text text-anchor="middle" x="403.852" y="-447" font-family="sans" font-size="10.00">featureCount</text>
</g>
<!-- 35 -->
<g id="node36" class="node"><title>35</title>
<path fill="none" stroke="#56b1d8" stroke-width="2" d="M438.855,-396C438.855,-396 368.849,-396 368.849,-396 362.849,-396 356.849,-390 356.849,-384 356.849,-384 356.849,-372 356.849,-372 356.849,-366 362.849,-360 368.849,-360 368.849,-360 438.855,-360 438.855,-360 444.855,-360 450.855,-366 450.855,-372 450.855,-372 450.855,-384 450.855,-384 450.855,-390 444.855,-396 438.855,-396"/>
<text text-anchor="middle" x="403.852" y="-375" font-family="sans" font-size="10.00">mergeTransGene</text>
</g>
<!-- 4&#45;&gt;35 -->
<g id="edge48" class="edge"><title>4&#45;&gt;35</title>
<path fill="none" stroke="grey" stroke-width="2" d="M403.852,-431.697C403.852,-423.983 403.852,-414.712 403.852,-406.112"/>
<polygon fill="grey" stroke="grey" stroke-width="2" points="407.352,-406.104 403.852,-396.104 400.352,-406.104 407.352,-406.104"/>
</g>
<!-- 5 -->
<g id="node6" class="node"><title>5</title>
<path fill="none" stroke="#d8b456" stroke-width="2" d="M530.67,-468C530.67,-468 481.034,-468 481.034,-468 475.034,-468 469.034,-462 469.034,-456 469.034,-456 469.034,-444 469.034,-444 469.034,-438 475.034,-432 481.034,-432 481.034,-432 530.67,-432 530.67,-432 536.67,-432 542.67,-438 542.67,-444 542.67,-444 542.67,-456 542.67,-456 542.67,-462 536.67,-468 530.67,-468"/>
<text text-anchor="middle" x="505.852" y="-447" font-family="sans" font-size="10.00">featureCount</text>
</g>
<!-- 36 -->
<g id="node37" class="node"><title>36</title>
<path fill="none" stroke="#56b1d8" stroke-width="2" d="M550.855,-396C550.855,-396 480.849,-396 480.849,-396 474.849,-396 468.849,-390 468.849,-384 468.849,-384 468.849,-372 468.849,-372 468.849,-366 474.849,-360 480.849,-360 480.849,-360 550.855,-360 550.855,-360 556.855,-360 562.855,-366 562.855,-372 562.855,-372 562.855,-384 562.855,-384 562.855,-390 556.855,-396 550.855,-396"/>
<text text-anchor="middle" x="515.852" y="-375" font-family="sans" font-size="10.00">mergeTransGene</text>
</g>
<!-- 5&#45;&gt;36 -->
<g id="edge49" class="edge"><title>5&#45;&gt;36</title>
<path fill="none" stroke="grey" stroke-width="2" d="M508.324,-431.697C509.426,-423.983 510.75,-414.712 511.979,-406.112"/>
<polygon fill="grey" stroke="grey" stroke-width="2" points="515.459,-406.499 513.409,-396.104 508.529,-405.509 515.459,-406.499"/>
</g>
<!-- 6&#45;&gt;3 -->
<g id="edge8" class="edge"><title>6&#45;&gt;3</title>
<path fill="none" stroke="grey" stroke-width="2" d="M383.612,-219.17C409.828,-209.032 445.86,-195.096 475.476,-183.643"/>
<polygon fill="grey" stroke="grey" stroke-width="2" points="476.781,-186.891 484.846,-180.019 474.256,-180.362 476.781,-186.891"/>
</g>
<!-- 8 -->
<g id="node9" class="node"><title>8</title>
<path fill="none" stroke="#56d8c9" stroke-width="2" d="M688.458,-180C688.458,-180 611.246,-180 611.246,-180 605.246,-180 599.246,-174 599.246,-168 599.246,-168 599.246,-156 599.246,-156 599.246,-150 605.246,-144 611.246,-144 611.246,-144 688.458,-144 688.458,-144 694.458,-144 700.458,-150 700.458,-156 700.458,-156 700.458,-168 700.458,-168 700.458,-174 694.458,-180 688.458,-180"/>
<text text-anchor="middle" x="649.852" y="-164" font-family="sans" font-size="10.00">DEA</text>
<text text-anchor="middle" x="649.852" y="-154" font-family="sans" font-size="10.00">condition: Mix_high</text>
</g>
<!-- 6&#45;&gt;8 -->
<g id="edge13" class="edge"><title>6&#45;&gt;8</title>
<path fill="none" stroke="grey" stroke-width="2" d="M383.683,-225.859C429.117,-216.65 510.068,-199.728 589.05,-180.122"/>
<polygon fill="grey" stroke="grey" stroke-width="2" points="590.318,-183.413 599.171,-177.592 588.621,-176.622 590.318,-183.413"/>
</g>
<!-- 13 -->
<g id="node14" class="node"><title>13</title>
<path fill="none" stroke="#56d8c9" stroke-width="2" d="M208.307,-180C208.307,-180 127.397,-180 127.397,-180 121.397,-180 115.397,-174 115.397,-168 115.397,-168 115.397,-156 115.397,-156 115.397,-150 121.397,-144 127.397,-144 127.397,-144 208.307,-144 208.307,-144 214.307,-144 220.307,-150 220.307,-156 220.307,-156 220.307,-168 220.307,-168 220.307,-174 214.307,-180 208.307,-180"/>
<text text-anchor="middle" x="167.852" y="-164" font-family="sans" font-size="10.00">DEA</text>
<text text-anchor="middle" x="167.852" y="-154" font-family="sans" font-size="10.00">condition: EE2_high</text>
</g>
<!-- 6&#45;&gt;13 -->
<g id="edge17" class="edge"><title>6&#45;&gt;13</title>
<path fill="none" stroke="grey" stroke-width="2" d="M312.29,-219.17C286.332,-209.075 250.696,-195.217 221.316,-183.792"/>
<polygon fill="grey" stroke="grey" stroke-width="2" points="222.204,-180.382 211.615,-180.019 219.667,-186.906 222.204,-180.382"/>
</g>
<!-- 20 -->
<g id="node21" class="node"><title>20</title>
<path fill="none" stroke="#56d8c9" stroke-width="2" d="M85.5566,-180C85.5566,-180 12.1475,-180 12.1475,-180 6.1475,-180 0.147503,-174 0.147503,-168 0.147503,-168 0.147503,-156 0.147503,-156 0.147503,-150 6.1475,-144 12.1475,-144 12.1475,-144 85.5566,-144 85.5566,-144 91.5566,-144 97.5566,-150 97.5566,-156 97.5566,-156 97.5566,-168 97.5566,-168 97.5566,-174 91.5566,-180 85.5566,-180"/>
<text text-anchor="middle" x="48.8521" y="-164" font-family="sans" font-size="10.00">DEA</text>
<text text-anchor="middle" x="48.8521" y="-154" font-family="sans" font-size="10.00">condition: Mix_low</text>
</g>
<!-- 6&#45;&gt;20 -->
<g id="edge26" class="edge"><title>6&#45;&gt;20</title>
<path fill="none" stroke="grey" stroke-width="2" d="M312.146,-225.946C266.875,-216.828 186.232,-200.006 107.873,-180.174"/>
<polygon fill="grey" stroke="grey" stroke-width="2" points="108.389,-176.694 97.8345,-177.614 106.659,-183.477 108.389,-176.694"/>
</g>
<!-- 38 -->
<g id="node39" class="node"><title>38</title>
<path fill="none" stroke="#56d8c9" stroke-width="2" d="M327.406,-180C327.406,-180 250.298,-180 250.298,-180 244.298,-180 238.298,-174 238.298,-168 238.298,-168 238.298,-156 238.298,-156 238.298,-150 244.298,-144 250.298,-144 250.298,-144 327.406,-144 327.406,-144 333.406,-144 339.406,-150 339.406,-156 339.406,-156 339.406,-168 339.406,-168 339.406,-174 333.406,-180 327.406,-180"/>
<text text-anchor="middle" x="288.852" y="-164" font-family="sans" font-size="10.00">DEA</text>
<text text-anchor="middle" x="288.852" y="-154" font-family="sans" font-size="10.00">condition: BaP_low</text>
</g>
<!-- 6&#45;&gt;38 -->
<g id="edge51" class="edge"><title>6&#45;&gt;38</title>
<path fill="none" stroke="grey" stroke-width="2" d="M333.268,-215.697C326.194,-207.305 317.569,-197.07 309.807,-187.861"/>
<polygon fill="grey" stroke="grey" stroke-width="2" points="312.39,-185.495 303.269,-180.104 307.037,-190.006 312.39,-185.495"/>
</g>
<!-- 40 -->
<g id="node41" class="node"><title>40</title>
<path fill="none" stroke="#56d8c9" stroke-width="2" d="M446.406,-180C446.406,-180 369.298,-180 369.298,-180 363.298,-180 357.298,-174 357.298,-168 357.298,-168 357.298,-156 357.298,-156 357.298,-150 363.298,-144 369.298,-144 369.298,-144 446.406,-144 446.406,-144 452.406,-144 458.406,-150 458.406,-156 458.406,-156 458.406,-168 458.406,-168 458.406,-174 452.406,-180 446.406,-180"/>
<text text-anchor="middle" x="407.852" y="-164" font-family="sans" font-size="10.00">DEA</text>
<text text-anchor="middle" x="407.852" y="-154" font-family="sans" font-size="10.00">condition: EE2_low</text>
</g>
<!-- 6&#45;&gt;40 -->
<g id="edge52" class="edge"><title>6&#45;&gt;40</title>
<path fill="none" stroke="grey" stroke-width="2" d="M362.684,-215.697C369.877,-207.305 378.649,-197.07 386.542,-187.861"/>
<polygon fill="grey" stroke="grey" stroke-width="2" points="389.341,-189.975 393.191,-180.104 384.026,-185.419 389.341,-189.975"/>
</g>
<!-- 7 -->
<g id="node8" class="node"><title>7</title>
<path fill="none" stroke="#d85656" stroke-width="2" d="M100.485,-540C100.485,-540 67.2191,-540 67.2191,-540 61.2191,-540 55.2191,-534 55.2191,-528 55.2191,-528 55.2191,-516 55.2191,-516 55.2191,-510 61.2191,-504 67.2191,-504 67.2191,-504 100.485,-504 100.485,-504 106.485,-504 112.485,-510 112.485,-516 112.485,-516 112.485,-528 112.485,-528 112.485,-534 106.485,-540 100.485,-540"/>
<text text-anchor="middle" x="83.8521" y="-519" font-family="sans" font-size="10.00">sortIndex</text>
</g>
<!-- 37 -->
<g id="node38" class="node"><title>37</title>
<path fill="none" stroke="#d8b456" stroke-width="2" d="M99.6697,-468C99.6697,-468 50.0344,-468 50.0344,-468 44.0344,-468 38.0344,-462 38.0344,-456 38.0344,-456 38.0344,-444 38.0344,-444 38.0344,-438 44.0344,-432 50.0344,-432 50.0344,-432 99.6697,-432 99.6697,-432 105.67,-432 111.67,-438 111.67,-444 111.67,-444 111.67,-456 111.67,-456 111.67,-462 105.67,-468 99.6697,-468"/>
<text text-anchor="middle" x="74.8521" y="-447" font-family="sans" font-size="10.00">featureCount</text>
</g>
<!-- 7&#45;&gt;37 -->
<g id="edge50" class="edge"><title>7&#45;&gt;37</title>
<path fill="none" stroke="grey" stroke-width="2" d="M81.6273,-503.697C80.6355,-495.983 79.4437,-486.712 78.3379,-478.112"/>
<polygon fill="grey" stroke="grey" stroke-width="2" points="81.7979,-477.576 77.0512,-468.104 74.8551,-478.469 81.7979,-477.576"/>
</g>
<!-- 30 -->
<g id="node31" class="node"><title>30</title>
<path fill="none" stroke="#56d86b" stroke-width="2" d="M648.532,-108C648.532,-108 605.172,-108 605.172,-108 599.172,-108 593.172,-102 593.172,-96 593.172,-96 593.172,-84 593.172,-84 593.172,-78 599.172,-72 605.172,-72 605.172,-72 648.532,-72 648.532,-72 654.532,-72 660.532,-78 660.532,-84 660.532,-84 660.532,-96 660.532,-96 660.532,-102 654.532,-108 648.532,-108"/>
<text text-anchor="middle" x="626.852" y="-87" font-family="sans" font-size="10.00">extractDEG</text>
</g>
<!-- 8&#45;&gt;30 -->
<g id="edge42" class="edge"><title>8&#45;&gt;30</title>
<path fill="none" stroke="grey" stroke-width="2" d="M644.167,-143.697C641.604,-135.898 638.519,-126.509 635.667,-117.829"/>
<polygon fill="grey" stroke="grey" stroke-width="2" points="638.919,-116.512 632.472,-108.104 632.269,-118.697 638.919,-116.512"/>
</g>
<!-- 9 -->
<g id="node10" class="node"><title>9</title>
<path fill="none" stroke="#d85656" stroke-width="2" d="M420.485,-540C420.485,-540 387.219,-540 387.219,-540 381.219,-540 375.219,-534 375.219,-528 375.219,-528 375.219,-516 375.219,-516 375.219,-510 381.219,-504 387.219,-504 387.219,-504 420.485,-504 420.485,-504 426.485,-504 432.485,-510 432.485,-516 432.485,-516 432.485,-528 432.485,-528 432.485,-534 426.485,-540 420.485,-540"/>
<text text-anchor="middle" x="403.852" y="-519" font-family="sans" font-size="10.00">sortIndex</text>
</g>
<!-- 9&#45;&gt;4 -->
<g id="edge9" class="edge"><title>9&#45;&gt;4</title>
<path fill="none" stroke="grey" stroke-width="2" d="M403.852,-503.697C403.852,-495.983 403.852,-486.712 403.852,-478.112"/>
<polygon fill="grey" stroke="grey" stroke-width="2" points="407.352,-478.104 403.852,-468.104 400.352,-478.104 407.352,-478.104"/>
</g>
<!-- 10 -->
<g id="node11" class="node"><title>10</title>
<path fill="none" stroke="#d85656" stroke-width="2" d="M605.485,-540C605.485,-540 572.219,-540 572.219,-540 566.219,-540 560.219,-534 560.219,-528 560.219,-528 560.219,-516 560.219,-516 560.219,-510 566.219,-504 572.219,-504 572.219,-504 605.485,-504 605.485,-504 611.485,-504 617.485,-510 617.485,-516 617.485,-516 617.485,-528 617.485,-528 617.485,-534 611.485,-540 605.485,-540"/>
<text text-anchor="middle" x="588.852" y="-519" font-family="sans" font-size="10.00">sortIndex</text>
</g>
<!-- 43 -->
<g id="node44" class="node"><title>43</title>
<path fill="none" stroke="#d8b456" stroke-width="2" d="M637.67,-468C637.67,-468 588.034,-468 588.034,-468 582.034,-468 576.034,-462 576.034,-456 576.034,-456 576.034,-444 576.034,-444 576.034,-438 582.034,-432 588.034,-432 588.034,-432 637.67,-432 637.67,-432 643.67,-432 649.67,-438 649.67,-444 649.67,-444 649.67,-456 649.67,-456 649.67,-462 643.67,-468 637.67,-468"/>
<text text-anchor="middle" x="612.852" y="-447" font-family="sans" font-size="10.00">featureCount</text>
</g>
<!-- 10&#45;&gt;43 -->
<g id="edge54" class="edge"><title>10&#45;&gt;43</title>
<path fill="none" stroke="grey" stroke-width="2" d="M594.785,-503.697C597.458,-495.898 600.678,-486.509 603.653,-477.829"/>
<polygon fill="grey" stroke="grey" stroke-width="2" points="607.055,-478.699 606.988,-468.104 600.434,-476.429 607.055,-478.699"/>
</g>
<!-- 11 -->
<g id="node12" class="node"><title>11</title>
<path fill="none" stroke="#d88556" stroke-width="2" d="M202.708,-684C202.708,-684 166.996,-684 166.996,-684 160.996,-684 154.996,-678 154.996,-672 154.996,-672 154.996,-660 154.996,-660 154.996,-654 160.996,-648 166.996,-648 166.996,-648 202.708,-648 202.708,-648 208.708,-648 214.708,-654 214.708,-660 214.708,-660 214.708,-672 214.708,-672 214.708,-678 208.708,-684 202.708,-684"/>
<text text-anchor="middle" x="184.852" y="-668" font-family="sans" font-size="10.00">getReads</text>
<text text-anchor="middle" x="184.852" y="-658" font-family="sans" font-size="10.00">sample: 2</text>
</g>
<!-- 31 -->
<g id="node32" class="node"><title>31</title>
<path fill="none" stroke="#5682d8" stroke-width="2" d="M202.713,-612C202.713,-612 166.992,-612 166.992,-612 160.992,-612 154.992,-606 154.992,-600 154.992,-600 154.992,-588 154.992,-588 154.992,-582 160.992,-576 166.992,-576 166.992,-576 202.713,-576 202.713,-576 208.713,-576 214.713,-582 214.713,-588 214.713,-588 214.713,-600 214.713,-600 214.713,-606 208.713,-612 202.713,-612"/>
<text text-anchor="middle" x="184.852" y="-591" font-family="sans" font-size="10.00">alignment</text>
</g>
<!-- 11&#45;&gt;31 -->
<g id="edge44" class="edge"><title>11&#45;&gt;31</title>
<path fill="none" stroke="grey" stroke-width="2" d="M184.852,-647.697C184.852,-639.983 184.852,-630.712 184.852,-622.112"/>
<polygon fill="grey" stroke="grey" stroke-width="2" points="188.352,-622.104 184.852,-612.104 181.352,-622.104 188.352,-622.104"/>
</g>
<!-- 12 -->
<g id="node13" class="node"><title>12</title>
<path fill="none" stroke="#d85656" stroke-width="2" d="M308.485,-540C308.485,-540 275.219,-540 275.219,-540 269.219,-540 263.219,-534 263.219,-528 263.219,-528 263.219,-516 263.219,-516 263.219,-510 269.219,-504 275.219,-504 275.219,-504 308.485,-504 308.485,-504 314.485,-504 320.485,-510 320.485,-516 320.485,-516 320.485,-528 320.485,-528 320.485,-534 314.485,-540 308.485,-540"/>
<text text-anchor="middle" x="291.852" y="-519" font-family="sans" font-size="10.00">sortIndex</text>
</g>
<!-- 26 -->
<g id="node27" class="node"><title>26</title>
<path fill="none" stroke="#d8b456" stroke-width="2" d="M316.67,-468C316.67,-468 267.034,-468 267.034,-468 261.034,-468 255.034,-462 255.034,-456 255.034,-456 255.034,-444 255.034,-444 255.034,-438 261.034,-432 267.034,-432 267.034,-432 316.67,-432 316.67,-432 322.67,-432 328.67,-438 328.67,-444 328.67,-444 328.67,-456 328.67,-456 328.67,-462 322.67,-468 316.67,-468"/>
<text text-anchor="middle" x="291.852" y="-447" font-family="sans" font-size="10.00">featureCount</text>
</g>
<!-- 12&#45;&gt;26 -->
<g id="edge33" class="edge"><title>12&#45;&gt;26</title>
<path fill="none" stroke="grey" stroke-width="2" d="M291.852,-503.697C291.852,-495.983 291.852,-486.712 291.852,-478.112"/>
<polygon fill="grey" stroke="grey" stroke-width="2" points="295.352,-478.104 291.852,-468.104 288.352,-478.104 295.352,-478.104"/>
</g>
<!-- 23 -->
<g id="node24" class="node"><title>23</title>
<path fill="none" stroke="#56d86b" stroke-width="2" d="M215.532,-108C215.532,-108 172.172,-108 172.172,-108 166.172,-108 160.172,-102 160.172,-96 160.172,-96 160.172,-84 160.172,-84 160.172,-78 166.172,-72 172.172,-72 172.172,-72 215.532,-72 215.532,-72 221.532,-72 227.532,-78 227.532,-84 227.532,-84 227.532,-96 227.532,-96 227.532,-102 221.532,-108 215.532,-108"/>
<text text-anchor="middle" x="193.852" y="-87" font-family="sans" font-size="10.00">extractDEG</text>
</g>
<!-- 13&#45;&gt;23 -->
<g id="edge30" class="edge"><title>13&#45;&gt;23</title>
<path fill="none" stroke="grey" stroke-width="2" d="M174.279,-143.697C177.207,-135.813 180.739,-126.304 183.992,-117.546"/>
<polygon fill="grey" stroke="grey" stroke-width="2" points="187.298,-118.697 187.499,-108.104 180.736,-116.26 187.298,-118.697"/>
</g>
<!-- 14 -->
<g id="node15" class="node"><title>14</title>
<path fill="none" stroke="#5682d8" stroke-width="2" d="M118.713,-612C118.713,-612 82.9916,-612 82.9916,-612 76.9916,-612 70.9916,-606 70.9916,-600 70.9916,-600 70.9916,-588 70.9916,-588 70.9916,-582 76.9916,-576 82.9916,-576 82.9916,-576 118.713,-576 118.713,-576 124.713,-576 130.713,-582 130.713,-588 130.713,-588 130.713,-600 130.713,-600 130.713,-606 124.713,-612 118.713,-612"/>
<text text-anchor="middle" x="100.852" y="-591" font-family="sans" font-size="10.00">alignment</text>
</g>
<!-- 14&#45;&gt;7 -->
<g id="edge12" class="edge"><title>14&#45;&gt;7</title>
<path fill="none" stroke="grey" stroke-width="2" d="M96.6498,-575.697C94.7558,-567.898 92.4756,-558.509 90.3677,-549.829"/>
<polygon fill="grey" stroke="grey" stroke-width="2" points="93.7671,-548.996 88.006,-540.104 86.9649,-550.648 93.7671,-548.996"/>
</g>
<!-- 15 -->
<g id="node16" class="node"><title>15</title>
<path fill="none" stroke="#56b1d8" stroke-width="2" d="M214.855,-396C214.855,-396 144.849,-396 144.849,-396 138.849,-396 132.849,-390 132.849,-384 132.849,-384 132.849,-372 132.849,-372 132.849,-366 138.849,-360 144.849,-360 144.849,-360 214.855,-360 214.855,-360 220.855,-360 226.855,-366 226.855,-372 226.855,-372 226.855,-384 226.855,-384 226.855,-390 220.855,-396 214.855,-396"/>
<text text-anchor="middle" x="179.852" y="-375" font-family="sans" font-size="10.00">mergeTransGene</text>
</g>
<!-- 15&#45;&gt;1 -->
<g id="edge2" class="edge"><title>15&#45;&gt;1</title>
<path fill="none" stroke="grey" stroke-width="2" d="M220.949,-359.876C244.018,-350.264 272.988,-338.193 297.422,-328.013"/>
<polygon fill="grey" stroke="grey" stroke-width="2" points="299.003,-331.145 306.888,-324.068 296.311,-324.684 299.003,-331.145"/>
</g>
<!-- 16 -->
<g id="node17" class="node"><title>16</title>
<path fill="none" stroke="#5682d8" stroke-width="2" d="M517.713,-612C517.713,-612 481.992,-612 481.992,-612 475.992,-612 469.992,-606 469.992,-600 469.992,-600 469.992,-588 469.992,-588 469.992,-582 475.992,-576 481.992,-576 481.992,-576 517.713,-576 517.713,-576 523.713,-576 529.713,-582 529.713,-588 529.713,-588 529.713,-600 529.713,-600 529.713,-606 523.713,-612 517.713,-612"/>
<text text-anchor="middle" x="499.852" y="-591" font-family="sans" font-size="10.00">alignment</text>
</g>
<!-- 34 -->
<g id="node35" class="node"><title>34</title>
<path fill="none" stroke="#d85656" stroke-width="2" d="M516.485,-540C516.485,-540 483.219,-540 483.219,-540 477.219,-540 471.219,-534 471.219,-528 471.219,-528 471.219,-516 471.219,-516 471.219,-510 477.219,-504 483.219,-504 483.219,-504 516.485,-504 516.485,-504 522.485,-504 528.485,-510 528.485,-516 528.485,-516 528.485,-528 528.485,-528 528.485,-534 522.485,-540 516.485,-540"/>
<text text-anchor="middle" x="499.852" y="-519" font-family="sans" font-size="10.00">sortIndex</text>
</g>
<!-- 16&#45;&gt;34 -->
<g id="edge47" class="edge"><title>16&#45;&gt;34</title>
<path fill="none" stroke="grey" stroke-width="2" d="M499.852,-575.697C499.852,-567.983 499.852,-558.712 499.852,-550.112"/>
<polygon fill="grey" stroke="grey" stroke-width="2" points="503.352,-550.104 499.852,-540.104 496.352,-550.104 503.352,-550.104"/>
</g>
<!-- 17 -->
<g id="node18" class="node"><title>17</title>
<path fill="none" stroke="#d88556" stroke-width="2" d="M517.708,-684C517.708,-684 481.996,-684 481.996,-684 475.996,-684 469.996,-678 469.996,-672 469.996,-672 469.996,-660 469.996,-660 469.996,-654 475.996,-648 481.996,-648 481.996,-648 517.708,-648 517.708,-648 523.708,-648 529.708,-654 529.708,-660 529.708,-660 529.708,-672 529.708,-672 529.708,-678 523.708,-684 517.708,-684"/>
<text text-anchor="middle" x="499.852" y="-668" font-family="sans" font-size="10.00">getReads</text>
<text text-anchor="middle" x="499.852" y="-658" font-family="sans" font-size="10.00">sample: 6</text>
</g>
<!-- 17&#45;&gt;16 -->
<g id="edge22" class="edge"><title>17&#45;&gt;16</title>
<path fill="none" stroke="grey" stroke-width="2" d="M499.852,-647.697C499.852,-639.983 499.852,-630.712 499.852,-622.112"/>
<polygon fill="grey" stroke="grey" stroke-width="2" points="503.352,-622.104 499.852,-612.104 496.352,-622.104 503.352,-622.104"/>
</g>
<!-- 18 -->
<g id="node19" class="node"><title>18</title>
<path fill="none" stroke="#d85656" stroke-width="2" d="M201.485,-540C201.485,-540 168.219,-540 168.219,-540 162.219,-540 156.219,-534 156.219,-528 156.219,-528 156.219,-516 156.219,-516 156.219,-510 162.219,-504 168.219,-504 168.219,-504 201.485,-504 201.485,-504 207.485,-504 213.485,-510 213.485,-516 213.485,-516 213.485,-528 213.485,-528 213.485,-534 207.485,-540 201.485,-540"/>
<text text-anchor="middle" x="184.852" y="-519" font-family="sans" font-size="10.00">sortIndex</text>
</g>
<!-- 41 -->
<g id="node42" class="node"><title>41</title>
<path fill="none" stroke="#d8b456" stroke-width="2" d="M209.67,-468C209.67,-468 160.034,-468 160.034,-468 154.034,-468 148.034,-462 148.034,-456 148.034,-456 148.034,-444 148.034,-444 148.034,-438 154.034,-432 160.034,-432 160.034,-432 209.67,-432 209.67,-432 215.67,-432 221.67,-438 221.67,-444 221.67,-444 221.67,-456 221.67,-456 221.67,-462 215.67,-468 209.67,-468"/>
<text text-anchor="middle" x="184.852" y="-447" font-family="sans" font-size="10.00">featureCount</text>
</g>
<!-- 18&#45;&gt;41 -->
<g id="edge53" class="edge"><title>18&#45;&gt;41</title>
<path fill="none" stroke="grey" stroke-width="2" d="M184.852,-503.697C184.852,-495.983 184.852,-486.712 184.852,-478.112"/>
<polygon fill="grey" stroke="grey" stroke-width="2" points="188.352,-478.104 184.852,-468.104 181.352,-478.104 188.352,-478.104"/>
</g>
<!-- 19&#45;&gt;9 -->
<g id="edge14" class="edge"><title>19&#45;&gt;9</title>
<path fill="none" stroke="grey" stroke-width="2" d="M403.852,-575.697C403.852,-567.983 403.852,-558.712 403.852,-550.112"/>
<polygon fill="grey" stroke="grey" stroke-width="2" points="407.352,-550.104 403.852,-540.104 400.352,-550.104 407.352,-550.104"/>
</g>
<!-- 21 -->
<g id="node22" class="node"><title>21</title>
<path fill="none" stroke="#56d86b" stroke-width="2" d="M95.5325,-108C95.5325,-108 52.1716,-108 52.1716,-108 46.1716,-108 40.1716,-102 40.1716,-96 40.1716,-96 40.1716,-84 40.1716,-84 40.1716,-78 46.1716,-72 52.1716,-72 52.1716,-72 95.5325,-72 95.5325,-72 101.532,-72 107.532,-78 107.532,-84 107.532,-84 107.532,-96 107.532,-96 107.532,-102 101.532,-108 95.5325,-108"/>
<text text-anchor="middle" x="73.8521" y="-87" font-family="sans" font-size="10.00">extractDEG</text>
</g>
<!-- 20&#45;&gt;21 -->
<g id="edge27" class="edge"><title>20&#45;&gt;21</title>
<path fill="none" stroke="grey" stroke-width="2" d="M55.0318,-143.697C57.8473,-135.813 61.2434,-126.304 64.3712,-117.546"/>
<polygon fill="grey" stroke="grey" stroke-width="2" points="67.676,-118.699 67.7434,-108.104 61.0838,-116.345 67.676,-118.699"/>
</g>
<!-- 29 -->
<g id="node30" class="node"><title>29</title>
<path fill="none" stroke="#9fd856" stroke-width="2" d="M362.852,-36C362.852,-36 332.852,-36 332.852,-36 326.852,-36 320.852,-30 320.852,-24 320.852,-24 320.852,-12 320.852,-12 320.852,-6 326.852,-0 332.852,-0 332.852,-0 362.852,-0 362.852,-0 368.852,-0 374.852,-6 374.852,-12 374.852,-12 374.852,-24 374.852,-24 374.852,-30 368.852,-36 362.852,-36"/>
<text text-anchor="middle" x="347.852" y="-15" font-family="sans" font-size="10.00">all</text>
</g>
<!-- 21&#45;&gt;29 -->
<g id="edge41" class="edge"><title>21&#45;&gt;29</title>
<path fill="none" stroke="grey" stroke-width="2" d="M107.725,-80.3464C159.377,-67.1505 257.453,-42.0947 310.89,-28.4429"/>
<polygon fill="grey" stroke="grey" stroke-width="2" points="311.819,-31.8181 320.641,-25.9517 310.086,-25.0359 311.819,-31.8181"/>
</g>
<!-- 22 -->
<g id="node23" class="node"><title>22</title>
<path fill="none" stroke="#5682d8" stroke-width="2" d="M602.713,-612C602.713,-612 566.992,-612 566.992,-612 560.992,-612 554.992,-606 554.992,-600 554.992,-600 554.992,-588 554.992,-588 554.992,-582 560.992,-576 566.992,-576 566.992,-576 602.713,-576 602.713,-576 608.713,-576 614.713,-582 614.713,-588 614.713,-588 614.713,-600 614.713,-600 614.713,-606 608.713,-612 602.713,-612"/>
<text text-anchor="middle" x="584.852" y="-591" font-family="sans" font-size="10.00">alignment</text>
</g>
<!-- 22&#45;&gt;10 -->
<g id="edge15" class="edge"><title>22&#45;&gt;10</title>
<path fill="none" stroke="grey" stroke-width="2" d="M585.841,-575.697C586.282,-567.983 586.811,-558.712 587.303,-550.112"/>
<polygon fill="grey" stroke="grey" stroke-width="2" points="590.798,-550.288 587.875,-540.104 583.81,-549.888 590.798,-550.288"/>
</g>
<!-- 23&#45;&gt;29 -->
<g id="edge36" class="edge"><title>23&#45;&gt;29</title>
<path fill="none" stroke="grey" stroke-width="2" d="M227.648,-73.6382C252.457,-62.3613 286.113,-47.063 311.503,-35.5224"/>
<polygon fill="grey" stroke="grey" stroke-width="2" points="313.138,-38.6239 320.793,-31.2995 310.241,-32.2513 313.138,-38.6239"/>
</g>
<!-- 24 -->
<g id="node25" class="node"><title>24</title>
<path fill="none" stroke="#56d86b" stroke-width="2" d="M318.532,-108C318.532,-108 275.172,-108 275.172,-108 269.172,-108 263.172,-102 263.172,-96 263.172,-96 263.172,-84 263.172,-84 263.172,-78 269.172,-72 275.172,-72 275.172,-72 318.532,-72 318.532,-72 324.532,-72 330.532,-78 330.532,-84 330.532,-84 330.532,-96 330.532,-96 330.532,-102 324.532,-108 318.532,-108"/>
<text text-anchor="middle" x="296.852" y="-87" font-family="sans" font-size="10.00">extractDEG</text>
</g>
<!-- 24&#45;&gt;29 -->
<g id="edge37" class="edge"><title>24&#45;&gt;29</title>
<path fill="none" stroke="grey" stroke-width="2" d="M309.459,-71.6966C315.449,-63.4741 322.729,-53.4832 329.331,-44.4207"/>
<polygon fill="grey" stroke="grey" stroke-width="2" points="332.331,-46.2477 335.39,-36.1043 326.673,-42.1257 332.331,-46.2477"/>
</g>
<!-- 25 -->
<g id="node26" class="node"><title>25</title>
<path fill="none" stroke="#56d86b" stroke-width="2" d="M420.532,-108C420.532,-108 377.172,-108 377.172,-108 371.172,-108 365.172,-102 365.172,-96 365.172,-96 365.172,-84 365.172,-84 365.172,-78 371.172,-72 377.172,-72 377.172,-72 420.532,-72 420.532,-72 426.532,-72 432.532,-78 432.532,-84 432.532,-84 432.532,-96 432.532,-96 432.532,-102 426.532,-108 420.532,-108"/>
<text text-anchor="middle" x="398.852" y="-87" font-family="sans" font-size="10.00">extractDEG</text>
</g>
<!-- 25&#45;&gt;29 -->
<g id="edge38" class="edge"><title>25&#45;&gt;29</title>
<path fill="none" stroke="grey" stroke-width="2" d="M386.245,-71.6966C380.255,-63.4741 372.976,-53.4832 366.373,-44.4207"/>
<polygon fill="grey" stroke="grey" stroke-width="2" points="369.031,-42.1257 360.314,-36.1043 363.374,-46.2477 369.031,-42.1257"/>
</g>
<!-- 28 -->
<g id="node29" class="node"><title>28</title>
<path fill="none" stroke="#56b1d8" stroke-width="2" d="M326.855,-396C326.855,-396 256.849,-396 256.849,-396 250.849,-396 244.849,-390 244.849,-384 244.849,-384 244.849,-372 244.849,-372 244.849,-366 250.849,-360 256.849,-360 256.849,-360 326.855,-360 326.855,-360 332.855,-360 338.855,-366 338.855,-372 338.855,-372 338.855,-384 338.855,-384 338.855,-390 332.855,-396 326.855,-396"/>
<text text-anchor="middle" x="291.852" y="-375" font-family="sans" font-size="10.00">mergeTransGene</text>
</g>
<!-- 26&#45;&gt;28 -->
<g id="edge35" class="edge"><title>26&#45;&gt;28</title>
<path fill="none" stroke="grey" stroke-width="2" d="M291.852,-431.697C291.852,-423.983 291.852,-414.712 291.852,-406.112"/>
<polygon fill="grey" stroke="grey" stroke-width="2" points="295.352,-406.104 291.852,-396.104 288.352,-406.104 295.352,-406.104"/>
</g>
<!-- 27&#45;&gt;29 -->
<g id="edge39" class="edge"><title>27&#45;&gt;29</title>
<path fill="none" stroke="grey" stroke-width="2" d="M477.078,-74.496C450.052,-62.8896 412.215,-46.6404 384.466,-34.7237"/>
<polygon fill="grey" stroke="grey" stroke-width="2" points="385.676,-31.4342 375.106,-30.7041 382.913,-37.8661 385.676,-31.4342"/>
</g>
<!-- 28&#45;&gt;1 -->
<g id="edge4" class="edge"><title>28&#45;&gt;1</title>
<path fill="none" stroke="grey" stroke-width="2" d="M305.695,-359.697C312.341,-351.389 320.43,-341.277 327.739,-332.141"/>
<polygon fill="grey" stroke="grey" stroke-width="2" points="330.655,-334.099 334.169,-324.104 325.189,-329.727 330.655,-334.099"/>
</g>
<!-- 30&#45;&gt;29 -->
<g id="edge40" class="edge"><title>30&#45;&gt;29</title>
<path fill="none" stroke="grey" stroke-width="2" d="M592.92,-80.4866C540.258,-67.2739 439.259,-41.9336 384.81,-28.2726"/>
<polygon fill="grey" stroke="grey" stroke-width="2" points="385.439,-24.822 374.888,-25.7832 383.736,-31.6116 385.439,-24.822"/>
</g>
<!-- 31&#45;&gt;18 -->
<g id="edge23" class="edge"><title>31&#45;&gt;18</title>
<path fill="none" stroke="grey" stroke-width="2" d="M184.852,-575.697C184.852,-567.983 184.852,-558.712 184.852,-550.112"/>
<polygon fill="grey" stroke="grey" stroke-width="2" points="188.352,-550.104 184.852,-540.104 181.352,-550.104 188.352,-550.104"/>
</g>
<!-- 32 -->
<g id="node33" class="node"><title>32</title>
<path fill="none" stroke="#d88556" stroke-width="2" d="M602.708,-684C602.708,-684 566.996,-684 566.996,-684 560.996,-684 554.996,-678 554.996,-672 554.996,-672 554.996,-660 554.996,-660 554.996,-654 560.996,-648 566.996,-648 566.996,-648 602.708,-648 602.708,-648 608.708,-648 614.708,-654 614.708,-660 614.708,-660 614.708,-672 614.708,-672 614.708,-678 608.708,-684 602.708,-684"/>
<text text-anchor="middle" x="584.852" y="-668" font-family="sans" font-size="10.00">getReads</text>
<text text-anchor="middle" x="584.852" y="-658" font-family="sans" font-size="10.00">sample: 1</text>
</g>
<!-- 32&#45;&gt;22 -->
<g id="edge29" class="edge"><title>32&#45;&gt;22</title>
<path fill="none" stroke="grey" stroke-width="2" d="M584.852,-647.697C584.852,-639.983 584.852,-630.712 584.852,-622.112"/>
<polygon fill="grey" stroke="grey" stroke-width="2" points="588.352,-622.104 584.852,-612.104 581.352,-622.104 588.352,-622.104"/>
</g>
<!-- 33 -->
<g id="node34" class="node"><title>33</title>
<path fill="none" stroke="#5682d8" stroke-width="2" d="M309.713,-612C309.713,-612 273.992,-612 273.992,-612 267.992,-612 261.992,-606 261.992,-600 261.992,-600 261.992,-588 261.992,-588 261.992,-582 267.992,-576 273.992,-576 273.992,-576 309.713,-576 309.713,-576 315.713,-576 321.713,-582 321.713,-588 321.713,-588 321.713,-600 321.713,-600 321.713,-606 315.713,-612 309.713,-612"/>
<text text-anchor="middle" x="291.852" y="-591" font-family="sans" font-size="10.00">alignment</text>
</g>
<!-- 33&#45;&gt;12 -->
<g id="edge16" class="edge"><title>33&#45;&gt;12</title>
<path fill="none" stroke="grey" stroke-width="2" d="M291.852,-575.697C291.852,-567.983 291.852,-558.712 291.852,-550.112"/>
<polygon fill="grey" stroke="grey" stroke-width="2" points="295.352,-550.104 291.852,-540.104 288.352,-550.104 295.352,-550.104"/>
</g>
<!-- 34&#45;&gt;5 -->
<g id="edge10" class="edge"><title>34&#45;&gt;5</title>
<path fill="none" stroke="grey" stroke-width="2" d="M501.335,-503.697C501.996,-495.983 502.791,-486.712 503.528,-478.112"/>
<polygon fill="grey" stroke="grey" stroke-width="2" points="507.019,-478.367 504.386,-468.104 500.045,-477.769 507.019,-478.367"/>
</g>
<!-- 35&#45;&gt;1 -->
<g id="edge6" class="edge"><title>35&#45;&gt;1</title>
<path fill="none" stroke="grey" stroke-width="2" d="M390.009,-359.697C383.364,-351.389 375.274,-341.277 367.965,-332.141"/>
<polygon fill="grey" stroke="grey" stroke-width="2" points="370.516,-329.727 361.536,-324.104 365.049,-334.099 370.516,-329.727"/>
</g>
<!-- 36&#45;&gt;1 -->
<g id="edge7" class="edge"><title>36&#45;&gt;1</title>
<path fill="none" stroke="grey" stroke-width="2" d="M474.755,-359.876C451.686,-350.264 422.716,-338.193 398.282,-328.013"/>
<polygon fill="grey" stroke="grey" stroke-width="2" points="399.393,-324.684 388.816,-324.068 396.701,-331.145 399.393,-324.684"/>
</g>
<!-- 37&#45;&gt;0 -->
<g id="edge1" class="edge"><title>37&#45;&gt;0</title>
<path fill="none" stroke="grey" stroke-width="2" d="M73.1217,-431.697C72.3503,-423.983 71.4233,-414.712 70.5633,-406.112"/>
<polygon fill="grey" stroke="grey" stroke-width="2" points="74.0402,-405.706 69.5625,-396.104 67.075,-406.403 74.0402,-405.706"/>
</g>
<!-- 38&#45;&gt;24 -->
<g id="edge31" class="edge"><title>38&#45;&gt;24</title>
<path fill="none" stroke="grey" stroke-width="2" d="M290.83,-143.697C291.711,-135.983 292.771,-126.712 293.753,-118.112"/>
<polygon fill="grey" stroke="grey" stroke-width="2" points="297.239,-118.437 294.897,-108.104 290.284,-117.642 297.239,-118.437"/>
</g>
<!-- 39 -->
<g id="node40" class="node"><title>39</title>
<path fill="none" stroke="#56d89a" stroke-width="2" d="M362.454,-684C362.454,-684 321.25,-684 321.25,-684 315.25,-684 309.25,-678 309.25,-672 309.25,-672 309.25,-660 309.25,-660 309.25,-654 315.25,-648 321.25,-648 321.25,-648 362.454,-648 362.454,-648 368.454,-648 374.454,-654 374.454,-660 374.454,-660 374.454,-672 374.454,-672 374.454,-678 368.454,-684 362.454,-684"/>
<text text-anchor="middle" x="341.852" y="-663" font-family="sans" font-size="10.00">indexTrans</text>
</g>
<!-- 39&#45;&gt;14 -->
<g id="edge19" class="edge"><title>39&#45;&gt;14</title>
<path fill="none" stroke="grey" stroke-width="2" d="M308.908,-650.793C306.203,-649.794 303.493,-648.848 300.852,-648 233.514,-626.383 213.526,-632.542 145.852,-612 143.994,-611.436 142.102,-610.834 140.198,-610.206"/>
<polygon fill="grey" stroke="grey" stroke-width="2" points="141.271,-606.874 130.676,-606.901 138.975,-613.487 141.271,-606.874"/>
</g>
<!-- 39&#45;&gt;16 -->
<g id="edge21" class="edge"><title>39&#45;&gt;16</title>
<path fill="none" stroke="grey" stroke-width="2" d="M374.59,-650.496C399.626,-639.404 434.234,-624.071 460.73,-612.333"/>
<polygon fill="grey" stroke="grey" stroke-width="2" points="462.366,-615.436 470.091,-608.185 459.531,-609.036 462.366,-615.436"/>
</g>
<!-- 39&#45;&gt;19 -->
<g id="edge24" class="edge"><title>39&#45;&gt;19</title>
<path fill="none" stroke="grey" stroke-width="2" d="M357.178,-647.697C364.611,-639.305 373.675,-629.07 381.832,-619.861"/>
<polygon fill="grey" stroke="grey" stroke-width="2" points="384.692,-621.911 388.702,-612.104 379.452,-617.27 384.692,-621.911"/>
</g>
<!-- 39&#45;&gt;22 -->
<g id="edge28" class="edge"><title>39&#45;&gt;22</title>
<path fill="none" stroke="grey" stroke-width="2" d="M374.794,-650.788C377.501,-649.79 380.21,-648.846 382.852,-648 450.617,-626.298 470.676,-632.374 538.852,-612 540.973,-611.366 543.138,-610.686 545.315,-609.975"/>
<polygon fill="grey" stroke="grey" stroke-width="2" points="546.522,-613.261 554.85,-606.711 544.255,-606.638 546.522,-613.261"/>
</g>
<!-- 39&#45;&gt;31 -->
<g id="edge43" class="edge"><title>39&#45;&gt;31</title>
<path fill="none" stroke="grey" stroke-width="2" d="M308.94,-650.326C284.114,-639.257 249.98,-624.038 223.795,-612.363"/>
<polygon fill="grey" stroke="grey" stroke-width="2" points="225.098,-609.112 214.54,-608.237 222.248,-615.505 225.098,-609.112"/>
</g>
<!-- 39&#45;&gt;33 -->
<g id="edge45" class="edge"><title>39&#45;&gt;33</title>
<path fill="none" stroke="grey" stroke-width="2" d="M329.492,-647.697C323.619,-639.474 316.483,-629.483 310.01,-620.421"/>
<polygon fill="grey" stroke="grey" stroke-width="2" points="312.73,-618.207 304.069,-612.104 307.034,-622.276 312.73,-618.207"/>
</g>
<!-- 40&#45;&gt;25 -->
<g id="edge32" class="edge"><title>40&#45;&gt;25</title>
<path fill="none" stroke="grey" stroke-width="2" d="M405.627,-143.697C404.636,-135.983 403.444,-126.712 402.338,-118.112"/>
<polygon fill="grey" stroke="grey" stroke-width="2" points="405.798,-117.576 401.051,-108.104 398.855,-118.469 405.798,-117.576"/>
</g>
<!-- 41&#45;&gt;15 -->
<g id="edge20" class="edge"><title>41&#45;&gt;15</title>
<path fill="none" stroke="grey" stroke-width="2" d="M183.616,-431.697C183.065,-423.983 182.403,-414.712 181.789,-406.112"/>
<polygon fill="grey" stroke="grey" stroke-width="2" points="185.277,-405.83 181.074,-396.104 178.295,-406.328 185.277,-405.83"/>
</g>
<!-- 42 -->
<g id="node43" class="node"><title>42</title>
<path fill="none" stroke="#d88556" stroke-width="2" d="M118.708,-684C118.708,-684 82.9965,-684 82.9965,-684 76.9965,-684 70.9965,-678 70.9965,-672 70.9965,-672 70.9965,-660 70.9965,-660 70.9965,-654 76.9965,-648 82.9965,-648 82.9965,-648 118.708,-648 118.708,-648 124.708,-648 130.708,-654 130.708,-660 130.708,-660 130.708,-672 130.708,-672 130.708,-678 124.708,-684 118.708,-684"/>
<text text-anchor="middle" x="100.852" y="-668" font-family="sans" font-size="10.00">getReads</text>
<text text-anchor="middle" x="100.852" y="-658" font-family="sans" font-size="10.00">sample: 4</text>
</g>
<!-- 42&#45;&gt;14 -->
<g id="edge18" class="edge"><title>42&#45;&gt;14</title>
<path fill="none" stroke="grey" stroke-width="2" d="M100.852,-647.697C100.852,-639.983 100.852,-630.712 100.852,-622.112"/>
<polygon fill="grey" stroke="grey" stroke-width="2" points="104.352,-622.104 100.852,-612.104 97.3522,-622.104 104.352,-622.104"/>
</g>
<!-- 45 -->
<g id="node46" class="node"><title>45</title>
<path fill="none" stroke="#56b1d8" stroke-width="2" d="M662.855,-396C662.855,-396 592.849,-396 592.849,-396 586.849,-396 580.849,-390 580.849,-384 580.849,-384 580.849,-372 580.849,-372 580.849,-366 586.849,-360 592.849,-360 592.849,-360 662.855,-360 662.855,-360 668.855,-360 674.855,-366 674.855,-372 674.855,-372 674.855,-384 674.855,-384 674.855,-390 668.855,-396 662.855,-396"/>
<text text-anchor="middle" x="627.852" y="-375" font-family="sans" font-size="10.00">mergeTransGene</text>
</g>
<!-- 43&#45;&gt;45 -->
<g id="edge55" class="edge"><title>43&#45;&gt;45</title>
<path fill="none" stroke="grey" stroke-width="2" d="M616.56,-431.697C618.213,-423.983 620.199,-414.712 622.042,-406.112"/>
<polygon fill="grey" stroke="grey" stroke-width="2" points="625.514,-406.616 624.187,-396.104 618.669,-405.149 625.514,-406.616"/>
</g>
<!-- 44 -->
<g id="node45" class="node"><title>44</title>
<path fill="none" stroke="#d88556" stroke-width="2" d="M279.708,-684C279.708,-684 243.996,-684 243.996,-684 237.996,-684 231.996,-678 231.996,-672 231.996,-672 231.996,-660 231.996,-660 231.996,-654 237.996,-648 243.996,-648 243.996,-648 279.708,-648 279.708,-648 285.708,-648 291.708,-654 291.708,-660 291.708,-660 291.708,-672 291.708,-672 291.708,-678 285.708,-684 279.708,-684"/>
<text text-anchor="middle" x="261.852" y="-668" font-family="sans" font-size="10.00">getReads</text>
<text text-anchor="middle" x="261.852" y="-658" font-family="sans" font-size="10.00">sample: 5</text>
</g>
<!-- 44&#45;&gt;33 -->
<g id="edge46" class="edge"><title>44&#45;&gt;33</title>
<path fill="none" stroke="grey" stroke-width="2" d="M269.268,-647.697C272.646,-639.813 276.722,-630.304 280.475,-621.546"/>
<polygon fill="grey" stroke="grey" stroke-width="2" points="283.799,-622.675 284.522,-612.104 277.365,-619.917 283.799,-622.675"/>
</g>
<!-- 45&#45;&gt;1 -->
<g id="edge3" class="edge"><title>45&#45;&gt;1</title>
<path fill="none" stroke="grey" stroke-width="2" d="M580.555,-362.416C577.616,-361.579 574.697,-360.768 571.852,-360 515.177,-344.709 449.793,-329.516 404.353,-319.343"/>
<polygon fill="grey" stroke="grey" stroke-width="2" points="404.919,-315.884 394.397,-317.123 403.396,-322.716 404.919,-315.884"/>
</g>
</g>
</svg>
