<?xml version="1.0" encoding="UTF-8" standalone="no"?>
<!DOCTYPE svg PUBLIC "-//W3C//DTD SVG 1.1//EN"
 "http://www.w3.org/Graphics/SVG/1.1/DTD/svg11.dtd">
<!-- Generated by graphviz version 2.38.0 (20140413.2041)
 -->
<!-- Title: snakemake_dag Pages: 1 -->
<svg width="150pt" height="620pt"
 viewBox="0.00 0.00 150.23 620.00" xmlns="http://www.w3.org/2000/svg" xmlns:xlink="http://www.w3.org/1999/xlink">
<g id="graph0" class="graph" transform="scale(1 1) rotate(0) translate(4 616)">
<title>snakemake_dag</title>
<polygon fill="white" stroke="none" points="-4,4 -4,-616 146.228,-616 146.228,4 -4,4"/>
<!-- 0 -->
<g id="node1" class="node"><title>0</title>
<path fill="none" stroke="#ced856" stroke-width="2" d="M103.882,-252C103.882,-252 35.4727,-252 35.4727,-252 29.4727,-252 23.4727,-246 23.4727,-240 23.4727,-240 23.4727,-228 23.4727,-228 23.4727,-222 29.4727,-216 35.4727,-216 35.4727,-216 103.882,-216 103.882,-216 109.882,-216 115.882,-222 115.882,-228 115.882,-228 115.882,-240 115.882,-240 115.882,-246 109.882,-252 103.882,-252"/>
<text text-anchor="middle" x="69.6772" y="-231" font-family="sans" font-size="10.00">combineSamples</text>
</g>
<!-- 6 -->
<g id="node7" class="node"><title>6</title>
<path fill="none" stroke="#56d89a" stroke-width="2" d="M93.2065,-180C93.2065,-180 46.1479,-180 46.1479,-180 40.1479,-180 34.1479,-174 34.1479,-168 34.1479,-168 34.1479,-156 34.1479,-156 34.1479,-150 40.1479,-144 46.1479,-144 46.1479,-144 93.2065,-144 93.2065,-144 99.2065,-144 105.207,-150 105.207,-156 105.207,-156 105.207,-168 105.207,-168 105.207,-174 99.2065,-180 93.2065,-180"/>
<text text-anchor="middle" x="69.6772" y="-159" font-family="sans" font-size="10.00">prepareDEA</text>
</g>
<!-- 0&#45;&gt;6 -->
<g id="edge6" class="edge"><title>0&#45;&gt;6</title>
<path fill="none" stroke="grey" stroke-width="2" d="M69.6772,-215.697C69.6772,-207.983 69.6772,-198.712 69.6772,-190.112"/>
<polygon fill="grey" stroke="grey" stroke-width="2" points="73.1773,-190.104 69.6772,-180.104 66.1773,-190.104 73.1773,-190.104"/>
</g>
<!-- 1 -->
<g id="node2" class="node"><title>1</title>
<path fill="none" stroke="#9fd856" stroke-width="2" d="M94.4949,-396C94.4949,-396 44.8596,-396 44.8596,-396 38.8596,-396 32.8596,-390 32.8596,-384 32.8596,-384 32.8596,-372 32.8596,-372 32.8596,-366 38.8596,-360 44.8596,-360 44.8596,-360 94.4949,-360 94.4949,-360 100.495,-360 106.495,-366 106.495,-372 106.495,-372 106.495,-384 106.495,-384 106.495,-390 100.495,-396 94.4949,-396"/>
<text text-anchor="middle" x="69.6772" y="-375" font-family="sans" font-size="10.00">featureCount</text>
</g>
<!-- 8 -->
<g id="node9" class="node"><title>8</title>
<path fill="none" stroke="#d85656" stroke-width="2" d="M104.68,-324C104.68,-324 34.6743,-324 34.6743,-324 28.6743,-324 22.6743,-318 22.6743,-312 22.6743,-312 22.6743,-300 22.6743,-300 22.6743,-294 28.6743,-288 34.6743,-288 34.6743,-288 104.68,-288 104.68,-288 110.68,-288 116.68,-294 116.68,-300 116.68,-300 116.68,-312 116.68,-312 116.68,-318 110.68,-324 104.68,-324"/>
<text text-anchor="middle" x="69.6772" y="-303" font-family="sans" font-size="10.00">mergeTransGene</text>
</g>
<!-- 1&#45;&gt;8 -->
<g id="edge7" class="edge"><title>1&#45;&gt;8</title>
<path fill="none" stroke="grey" stroke-width="2" d="M69.6772,-359.697C69.6772,-351.983 69.6772,-342.712 69.6772,-334.112"/>
<polygon fill="grey" stroke="grey" stroke-width="2" points="73.1773,-334.104 69.6772,-324.104 66.1773,-334.104 73.1773,-334.104"/>
</g>
<!-- 2 -->
<g id="node3" class="node"><title>2</title>
<path fill="none" stroke="#d88556" stroke-width="2" d="M108.283,-108C108.283,-108 31.071,-108 31.071,-108 25.071,-108 19.071,-102 19.071,-96 19.071,-96 19.071,-84 19.071,-84 19.071,-78 25.071,-72 31.071,-72 31.071,-72 108.283,-72 108.283,-72 114.283,-72 120.283,-78 120.283,-84 120.283,-84 120.283,-96 120.283,-96 120.283,-102 114.283,-108 108.283,-108"/>
<text text-anchor="middle" x="69.6772" y="-92" font-family="sans" font-size="10.00">DEA</text>
<text text-anchor="middle" x="69.6772" y="-82" font-family="sans" font-size="10.00">condition: Mix_high</text>
</g>
<!-- 5 -->
<g id="node6" class="node"><title>5</title>
<path fill="none" stroke="#56d8c9" stroke-width="2" d="M91.3577,-36C91.3577,-36 47.9968,-36 47.9968,-36 41.9968,-36 35.9968,-30 35.9968,-24 35.9968,-24 35.9968,-12 35.9968,-12 35.9968,-6 41.9968,-0 47.9968,-0 47.9968,-0 91.3577,-0 91.3577,-0 97.3577,-0 103.358,-6 103.358,-12 103.358,-12 103.358,-24 103.358,-24 103.358,-30 97.3577,-36 91.3577,-36"/>
<text text-anchor="middle" x="69.6772" y="-15" font-family="sans" font-size="10.00">extractDEG</text>
</g>
<!-- 2&#45;&gt;5 -->
<g id="edge5" class="edge"><title>2&#45;&gt;5</title>
<path fill="none" stroke="grey" stroke-width="2" d="M69.6772,-71.6966C69.6772,-63.9827 69.6772,-54.7125 69.6772,-46.1124"/>
<polygon fill="grey" stroke="grey" stroke-width="2" points="73.1773,-46.1043 69.6772,-36.1043 66.1773,-46.1044 73.1773,-46.1043"/>
</g>
<!-- 3 -->
<g id="node4" class="node"><title>3</title>
<path fill="none" stroke="#56b1d8" stroke-width="2" d="M47.5328,-612C47.5328,-612 11.8217,-612 11.8217,-612 5.82169,-612 -0.178311,-606 -0.178311,-600 -0.178311,-600 -0.178311,-588 -0.178311,-588 -0.178311,-582 5.82169,-576 11.8217,-576 11.8217,-576 47.5328,-576 47.5328,-576 53.5328,-576 59.5328,-582 59.5328,-588 59.5328,-588 59.5328,-600 59.5328,-600 59.5328,-606 53.5328,-612 47.5328,-612"/>
<text text-anchor="middle" x="29.6772" y="-596" font-family="sans" font-size="10.00">getReads</text>
<text text-anchor="middle" x="29.6772" y="-586" font-family="sans" font-size="10.00">sample: 1</text>
</g>
<!-- 9 -->
<g id="node10" class="node"><title>9</title>
<path fill="none" stroke="#d8b456" stroke-width="2" d="M87.5377,-540C87.5377,-540 51.8168,-540 51.8168,-540 45.8168,-540 39.8168,-534 39.8168,-528 39.8168,-528 39.8168,-516 39.8168,-516 39.8168,-510 45.8168,-504 51.8168,-504 51.8168,-504 87.5377,-504 87.5377,-504 93.5377,-504 99.5377,-510 99.5377,-516 99.5377,-516 99.5377,-528 99.5377,-528 99.5377,-534 93.5377,-540 87.5377,-540"/>
<text text-anchor="middle" x="69.6772" y="-519" font-family="sans" font-size="10.00">alignment</text>
</g>
<!-- 3&#45;&gt;9 -->
<g id="edge8" class="edge"><title>3&#45;&gt;9</title>
<path fill="none" stroke="grey" stroke-width="2" d="M39.5649,-575.697C44.1666,-567.644 49.7375,-557.894 54.8301,-548.982"/>
<polygon fill="grey" stroke="grey" stroke-width="2" points="57.9808,-550.523 59.9033,-540.104 51.903,-547.05 57.9808,-550.523"/>
</g>
<!-- 4 -->
<g id="node5" class="node"><title>4</title>
<path fill="none" stroke="#5682d8" stroke-width="2" d="M86.3102,-468C86.3102,-468 53.0443,-468 53.0443,-468 47.0443,-468 41.0443,-462 41.0443,-456 41.0443,-456 41.0443,-444 41.0443,-444 41.0443,-438 47.0443,-432 53.0443,-432 53.0443,-432 86.3102,-432 86.3102,-432 92.3102,-432 98.3102,-438 98.3102,-444 98.3102,-444 98.3102,-456 98.3102,-456 98.3102,-462 92.3102,-468 86.3102,-468"/>
<text text-anchor="middle" x="69.6772" y="-447" font-family="sans" font-size="10.00">sortIndex</text>
</g>
<!-- 4&#45;&gt;1 -->
<g id="edge2" class="edge"><title>4&#45;&gt;1</title>
<path fill="none" stroke="grey" stroke-width="2" d="M69.6772,-431.697C69.6772,-423.983 69.6772,-414.712 69.6772,-406.112"/>
<polygon fill="grey" stroke="grey" stroke-width="2" points="73.1773,-406.104 69.6772,-396.104 66.1773,-406.104 73.1773,-406.104"/>
</g>
<!-- 6&#45;&gt;2 -->
<g id="edge3" class="edge"><title>6&#45;&gt;2</title>
<path fill="none" stroke="grey" stroke-width="2" d="M69.6772,-143.697C69.6772,-135.983 69.6772,-126.712 69.6772,-118.112"/>
<polygon fill="grey" stroke="grey" stroke-width="2" points="73.1773,-118.104 69.6772,-108.104 66.1773,-118.104 73.1773,-118.104"/>
</g>
<!-- 7 -->
<g id="node8" class="node"><title>7</title>
<path fill="none" stroke="#70d856" stroke-width="2" d="M130.279,-612C130.279,-612 89.0756,-612 89.0756,-612 83.0756,-612 77.0756,-606 77.0756,-600 77.0756,-600 77.0756,-588 77.0756,-588 77.0756,-582 83.0756,-576 89.0756,-576 89.0756,-576 130.279,-576 130.279,-576 136.279,-576 142.279,-582 142.279,-588 142.279,-588 142.279,-600 142.279,-600 142.279,-606 136.279,-612 130.279,-612"/>
<text text-anchor="middle" x="109.677" y="-591" font-family="sans" font-size="10.00">indexTrans</text>
</g>
<!-- 7&#45;&gt;9 -->
<g id="edge9" class="edge"><title>7&#45;&gt;9</title>
<path fill="none" stroke="grey" stroke-width="2" d="M99.7896,-575.697C95.1879,-567.644 89.617,-557.894 84.5243,-548.982"/>
<polygon fill="grey" stroke="grey" stroke-width="2" points="87.4514,-547.05 79.4512,-540.104 81.3737,-550.523 87.4514,-547.05"/>
</g>
<!-- 8&#45;&gt;0 -->
<g id="edge1" class="edge"><title>8&#45;&gt;0</title>
<path fill="none" stroke="grey" stroke-width="2" d="M69.6772,-287.697C69.6772,-279.983 69.6772,-270.712 69.6772,-262.112"/>
<polygon fill="grey" stroke="grey" stroke-width="2" points="73.1773,-262.104 69.6772,-252.104 66.1773,-262.104 73.1773,-262.104"/>
</g>
<!-- 9&#45;&gt;4 -->
<g id="edge4" class="edge"><title>9&#45;&gt;4</title>
<path fill="none" stroke="grey" stroke-width="2" d="M69.6772,-503.697C69.6772,-495.983 69.6772,-486.712 69.6772,-478.112"/>
<polygon fill="grey" stroke="grey" stroke-width="2" points="73.1773,-478.104 69.6772,-468.104 66.1773,-478.104 73.1773,-478.104"/>
</g>
</g>
</svg>
